<svg width="100%" viewBox="0 0 618 421" fill="none" xmlns="http://www.w3.org/2000/svg"><g opacity=".3" clip-path="url(#a)"><path d="m160.913 223.885-32.978 32.987 32.978 32.987 32.979-32.987-32.979-32.987Z" fill="url(#b)"/><path d="m160.942 131.02-32.978 32.987 32.978 32.986 32.979-32.986-32.979-32.987Z" fill="url(#c)"/><path d="m108.543 171.621-38.858 38.867 38.858 38.867 38.858-38.867-38.858-38.867Z" fill="url(#d)"/><path d="M25.47 185.009-.007 210.49l25.475 25.481 25.475-25.481-25.475-25.481Z" fill="url(#e)"/><path d="M401.729 56.463 361.772 96.43l39.957 39.966 39.957-39.966-39.957-39.967Z" fill="url(#f)"/><path d="m401.781 284.561-39.957 39.966 39.957 39.966 39.957-39.966-39.957-39.966Z" fill="url(#g)"/><path d="m224.347 160.483-49.993 50.006 49.993 50.006 49.994-50.006-49.994-50.006Z" fill="url(#h)"/><path d="m375.069 136.714-73.748 73.765 73.748 73.766 73.748-73.766-73.748-73.765Z" fill="url(#i)"/><path d="m287.833 224.109-45.836 45.847 45.836 45.847 45.835-45.847-45.835-45.847Z" fill="url(#j)"/><path d="m287.826 105.247-45.836 45.846 45.836 45.847 45.836-45.847-45.836-45.846Z" fill="url(#k)"/><path d="M585.285 210.466 618 177.744C581.77 137.381 512.961 65.919 425.158 0l-29.335 24.745 72.189 72.206-52.858 52.87 60.428 60.442-.203.474-60.427 60.442 52.857 52.87-72.189 72.206L424.955 421c87.736-65.919 156.748-137.449 192.977-177.879l-32.647-32.655Z" fill="url(#l)"/></g><defs><linearGradient id="b" x1="127.892" y1="256.873" x2="193.795" y2="256.873" gradientUnits="userSpaceOnUse"><stop stop-color="#004868"/><stop offset="1" stop-color="#109CC7"/></linearGradient><linearGradient id="c" x1=".016" y1="164.001" x2="6.775" y2="164.001" gradientUnits="userSpaceOnUse"><stop stop-color="#004868"/><stop offset="1" stop-color="#109CC7"/></linearGradient><linearGradient id="d" x1="69.688" y1="210.414" x2="147.352" y2="210.414" gradientUnits="userSpaceOnUse"><stop stop-color="#004868"/><stop offset="1" stop-color="#109CC7"/></linearGradient><linearGradient id="e" x1=".042" y1="210.463" x2="50.939" y2="210.463" gradientUnits="userSpaceOnUse"><stop stop-color="#004868"/><stop offset="1" stop-color="#109CC7"/></linearGradient><linearGradient id="f" x1="361.766" y1="96.481" x2="441.728" y2="96.481" gradientUnits="userSpaceOnUse"><stop stop-color="#004868"/><stop offset="1" stop-color="#109CC7"/></linearGradient><linearGradient id="g" x1="361.77" y1="324.538" x2="441.732" y2="324.538" gradientUnits="userSpaceOnUse"><stop stop-color="#004868"/><stop offset="1" stop-color="#109CC7"/></linearGradient><linearGradient id="h" x1="174.433" y1="210.462" x2="274.403" y2="210.462" gradientUnits="userSpaceOnUse"><stop stop-color="#004868"/><stop offset="1" stop-color="#109CC7"/></linearGradient><linearGradient id="i" x1="301.328" y1="210.453" x2="448.883" y2="210.453" gradientUnits="userSpaceOnUse"><stop stop-color="#004868"/><stop offset="1" stop-color="#109CC7"/></linearGradient><linearGradient id="j" x1="241.991" y1="269.954" x2="333.715" y2="269.954" gradientUnits="userSpaceOnUse"><stop stop-color="#004868"/><stop offset="1" stop-color="#109CC7"/></linearGradient><linearGradient id="k" x1="241.937" y1="151.062" x2="333.66" y2="151.062" gradientUnits="userSpaceOnUse"><stop stop-color="#004868"/><stop offset="1" stop-color="#109CC7"/></linearGradient><linearGradient id="l" x1="395.552" y1="210.466" x2="618" y2="210.466" gradientUnits="userSpaceOnUse"><stop stop-color="#004868"/><stop offset="1" stop-color="#109CC7"/></linearGradient><clipPath id="a"><path fill="#fff" d="M0 0h618v421H0z"/></clipPath></defs></svg>